<svg width="70" height="70" viewBox="0 0 70 70" fill="none" xmlns="http://www.w3.org/2000/svg">
<path d="M7.58143 7.15374C7.17675 7.32874 6.94707 7.85374 7.10019 8.24748C7.23144 8.59748 7.10019 8.49904 16.4298 15.3677L24.7094 21.4598V32.255V43.0393L22.8719 44.9752L21.0453 46.9111L20.9907 36.269L20.936 25.627L20.6297 25.2332C20.4657 25.0145 20.1922 24.7629 20.0172 24.6754C19.3938 24.3473 12.1751 21.5255 11.8361 21.4708C11.3111 21.3833 10.5455 21.7114 10.1845 22.1817L9.88922 22.5645L9.85641 40.6331L9.83453 58.7016L8.54392 60.0578C7.82206 60.8016 7.18769 61.5235 7.12206 61.6547C6.91425 62.0375 6.96894 62.3438 7.308 62.6828L7.62518 63H34.9905H62.3558L62.673 62.6828C63.0121 62.3438 63.0668 62.0375 62.8589 61.6547C62.7933 61.5235 62.159 60.8016 61.4371 60.0578L60.1465 58.7016L60.1246 40.644L60.0918 22.5864L59.8293 22.2145C59.534 21.8098 58.8449 21.4489 58.3418 21.438C58.1668 21.438 56.1434 22.1926 53.8684 23.1114C50.0185 24.6535 49.6903 24.8067 49.3841 25.1895L49.045 25.616L48.9903 36.2581L48.9357 46.9111L47.1091 44.9752L45.2716 43.0393V32.255V21.4598L53.7809 15.2037C58.4512 11.7584 62.4105 8.81623 62.5855 8.6631C63.4496 7.85374 62.334 6.585 61.3715 7.29593C61.2074 7.4053 57.259 10.3256 52.5778 13.7599L44.0904 20.0161H35.0014H25.9015L17.2173 13.6177C9.88922 8.22561 8.1283 6.96781 7.94237 7.00062C7.93143 7.01156 7.76737 7.07718 7.58143 7.15374ZM43.4123 32.2113V42.4377H41.9904H40.5686L40.5467 34.6394L40.5139 26.8301L40.1967 26.4254C39.6498 25.7035 39.628 25.7035 34.9905 25.7035C30.3531 25.7035 30.3312 25.7035 29.7843 26.4254L29.4671 26.8301L29.4343 34.6394L29.4124 42.4377H27.9906H26.5687V32.2113V21.9848H34.9905H43.4123V32.2113ZM19.1094 31.7628L19.0766 37.2425L18.3219 37.6362C17.8954 37.8659 17.4907 38.1284 17.4141 38.2378C17.086 38.6971 17.4032 39.4956 17.9829 39.6378C18.136 39.6815 18.4313 39.6378 18.6501 39.5393C18.8688 39.4518 19.0657 39.3753 19.0876 39.3753C19.1094 39.3753 19.1313 41.5299 19.1313 44.1549L19.1204 48.9455L15.8392 52.3907C14.0345 54.2829 12.372 56.0329 12.1314 56.2735L11.6939 56.711V40.0096V23.3192L15.4126 24.8067L19.1313 26.2942L19.1094 31.7628ZM58.2871 31.1613V39.0362L57.9043 38.8721C57.3793 38.6534 57.1387 38.6753 56.7996 38.9815C56.57 39.1675 56.4934 39.3424 56.4934 39.6268C56.4934 40.1409 56.7778 40.4471 57.6309 40.8518L58.2871 41.169V48.9345V56.711L57.8496 56.2735C57.609 56.0329 55.9465 54.2829 54.1419 52.3907L50.8606 48.9455L50.8497 37.6143V26.2942L54.5465 24.8067C56.57 23.9973 58.2434 23.3192 58.2652 23.3083C58.2762 23.3083 58.2871 26.841 58.2871 31.1613ZM38.7092 31.2816V35.0003H38.0967C37.5717 35.0003 37.4514 35.0441 37.167 35.3175C36.9811 35.5144 36.8499 35.755 36.8499 35.93C36.8499 36.105 36.9811 36.3456 37.167 36.5425C37.4514 36.8159 37.5717 36.8597 38.0967 36.8597H38.7092V39.6487V42.4377H34.9905H31.2718V35.0003V27.5629H34.9905H38.7092V31.2816ZM51.2872 52.0736C55.345 56.3391 58.9324 60.1344 59.2496 60.4844L59.8402 61.1406H58.5824H57.3137L50.2919 53.747C46.431 49.6892 43.1498 46.3096 43.0076 46.2549C42.6576 46.1236 27.3234 46.1236 26.9734 46.2549C26.8312 46.3096 23.55 49.6783 19.6891 53.747L12.6673 61.1406H11.3986H10.1408L10.7314 60.4844C11.0486 60.1344 14.636 56.3391 18.6938 52.0736L26.0765 44.2971H34.9905H43.9045L51.2872 52.0736ZM48.4872 54.5454L54.6887 61.086L44.8341 61.1188C39.4201 61.1297 30.5609 61.1297 25.1469 61.1188L15.3032 61.086L21.5047 54.5454L27.7062 48.0158H34.9905H42.2748L48.4872 54.5454Z" fill="url(#paint0_linear_300_597)" stroke="white" stroke-width="0.2"/>
<path d="M33.7966 7.12094C32.4951 7.3725 31.0623 8.43343 30.592 9.49435C30.242 10.2709 30.2638 11.2662 30.6466 12.0646C31.9701 14.7552 36.52 15.2912 38.6637 12.9943C39.3528 12.2615 39.6262 11.6053 39.6153 10.7084C39.6044 8.29124 36.7606 6.54126 33.7966 7.12094ZM36.5419 9.20998C37.1544 9.49435 37.6356 9.99747 37.7559 10.4787C37.9309 11.2006 37.1653 12.1084 36.1481 12.4146C34.9778 12.7646 33.6216 12.5459 32.8232 11.8678C30.8873 10.2053 33.9388 8.02875 36.5419 9.20998Z" fill="url(#paint1_linear_300_597)" stroke="white" stroke-width="0.2"/>
<defs>
<linearGradient id="paint0_linear_300_597" x1="34.9905" y1="63" x2="34.9905" y2="7" gradientUnits="userSpaceOnUse">
<stop stop-color="#D0C3AE"/>
<stop offset="1" stop-color="#A17645"/>
</linearGradient>
<linearGradient id="paint1_linear_300_597" x1="34.9797" y1="14.4399" x2="34.9797" y2="7.00933" gradientUnits="userSpaceOnUse">
<stop stop-color="#D0C3AE"/>
<stop offset="1" stop-color="#A17645"/>
</linearGradient>
</defs>
</svg>
